<?xml version="1.0" standalone="no"?>
<!DOCTYPE svg PUBLIC "-//W3C//DTD SVG 20010904//EN"
 "http://www.w3.org/TR/2001/REC-SVG-20010904/DTD/svg10.dtd">
<svg version="1.0" xmlns="http://www.w3.org/2000/svg"
 width="128.000000pt" height="128.000000pt" viewBox="0 0 128.000000 128.000000"
 preserveAspectRatio="xMidYMid meet">
<metadata>
Created by potrace 1.16, written by Peter Selinger 2001-2019
</metadata>
<g transform="translate(0.000000,128.000000) scale(0.100000,-0.100000)"
fill="#000000" stroke="none">
<path d="M570 580 l0 -60 -60 0 -60 0 0 -70 0 -70 29 0 c16 0 43 -3 60 -6 30
-6 31 -7 31 -65 l0 -59 75 0 75 0 0 60 0 60 60 0 60 0 0 75 0 75 -60 0 -60 0
0 60 0 60 -75 0 -75 0 0 -60z"/>
</g>
</svg>
